<svg xmlns="http://www.w3.org/2000/svg" viewBox="0 0 64 64" fill="none">
  <rect width="64" height="64" rx="14" fill="#0d1524"/>
  <defs>
    <linearGradient id="blade" x1="0" y1="0" x2="64" y2="64" gradientUnits="userSpaceOnUse">
      <stop offset="0%" stop-color="#3b82f6"/>
      <stop offset="100%" stop-color="#6366f1"/>
    </linearGradient>
  </defs>
  <path d="M32 8 L40 20 L32 24 Z" fill="url(#blade)" opacity="0.95"/>
  <path d="M56 32 L44 40 L40 32 Z" fill="url(#blade)" opacity="0.90"/>
  <path d="M32 56 L24 44 L32 40 Z" fill="url(#blade)" opacity="0.95"/>
  <path d="M8 32 L20 24 L24 32 Z" fill="url(#blade)" opacity="0.90"/>
  <path d="M50 14 L44 28 L36 22 Z" fill="url(#blade)" opacity="0.85"/>
  <path d="M50 50 L36 44 L42 36 Z" fill="url(#blade)" opacity="0.85"/>
  <path d="M14 50 L20 36 L28 42 Z" fill="url(#blade)" opacity="0.85"/>
  <path d="M14 14 L28 20 L22 28 Z" fill="url(#blade)" opacity="0.85"/>
  <circle cx="32" cy="32" r="11" fill="#0d1524"/>
  <path d="M32 22 L39 25.5 L39 32 C39 36.5 35.5 40 32 42 C28.5 40 25 36.5 25 32 L25 25.5 Z"
    fill="none" stroke="white" stroke-width="1.8" stroke-linejoin="round" stroke-linecap="round" opacity="0.92"/>
  <path d="M28.5 32 L31 34.5 L35.5 29.5"
    stroke="white" stroke-width="1.8" stroke-linecap="round" stroke-linejoin="round" fill="none" opacity="0.92"/>
</svg>
